<?xml version="1.0" ?><svg id="Layer_1" style="enable-background:new 0 0 100 100;" version="1.1" viewBox="0 0 100 100" xml:space="preserve" xmlns="http://www.w3.org/2000/svg" xmlns:xlink="http://www.w3.org/1999/xlink"><g><path d="M51.7,4c-25.4,0-46,20.6-46,46s20.6,46,46,46c25.4,0,46-20.6,46-46C97.7,24.6,77.1,4,51.7,4z M51.7,94   c-24.3,0-44-19.7-44-44c0-24.3,19.7-44,44-44c24.3,0,44,19.7,44,44C95.7,74.3,76,94,51.7,94z"/></g><path d="M82.3,31.3c0-0.1,0-0.2,0-0.2c0-0.1-0.1-0.1-0.1-0.2c0,0,0-0.1-0.1-0.1c0,0,0,0,0,0c-0.1-0.1-0.2-0.1-0.3-0.2c0,0,0,0-0.1,0  c0,0,0,0,0,0c-0.1,0-0.2-0.1-0.3-0.1c0,0,0,0,0,0H21.9c0,0,0,0,0,0c-0.1,0-0.3,0-0.4,0.1c0,0,0,0,0,0c0,0,0,0-0.1,0  c-0.1,0-0.2,0.1-0.3,0.2c0,0,0,0,0,0c0,0,0,0.1-0.1,0.1c-0.1,0.1-0.1,0.1-0.1,0.2c0,0.1,0,0.2,0,0.2c0,0,0,0.1,0,0.1v37.4  c0,0.6,0.4,1,1,1h59.3c0.6,0,1-0.4,1-1V31.5C82.3,31.4,82.3,31.4,82.3,31.3z M78.8,32.5L51.6,58.8L24.4,32.5H78.8z M22.9,67.9v-34  l28,27.1c0.2,0.2,0.4,0.3,0.7,0.3s0.5-0.1,0.7-0.3l28-27.1v34H22.9z"/></svg>