<?xml version="1.0" ?><svg enable-background="new 0 0 64 64" version="1.1" viewBox="0 0 64 64" xml:space="preserve" xmlns="http://www.w3.org/2000/svg" xmlns:xlink="http://www.w3.org/1999/xlink"><g id="Layer_3"><g><g><g><path d="M32,0C14.327,0,0,14.327,0,32c0,17.673,14.327,32,32,32s32-14.327,32-32C64,14.327,49.673,0,32,0z" fill="#333333"/></g></g><g id="Outline_Filled_2_"><g><path d="M30.488,31.657c-0.96-0.889-2.027-2.135-2.49-3.239c-0.071-0.142-0.213-0.499,0-0.783      c0.426-0.57,0.497-0.605,0.96-1.138c0.321-0.392,0.568-0.747,0.463-1.067l-1.601-4.164c-0.142-0.284-0.568-0.321-1.067-0.355      c-0.426,0-0.889,0-1.209,0.071c-0.712,0.25-2.169,2.171-2.348,3.559c-0.392,3.023,2.348,7.045,5.085,9.537      c2.739,2.526,6.972,4.911,9.959,4.235c1.388-0.321,3.165-1.922,3.307-2.668c0.071-0.321,0.037-0.781-0.037-1.209      c-0.034-0.497-0.142-0.854-0.428-0.996l-3.626-1.674c-0.321-0.179-0.641-0.037-0.96,0.357c-0.392,0.534-0.57,0.747-1.031,1.317      c-0.25,0.321-0.426,0.534-0.71,0.568c-0.321,0.071-0.747-0.108-0.818-0.108C32.799,33.507,31.485,32.545,30.488,31.657      L30.488,31.657z M18.539,44.432l2.064-5.231c-2.277-2.634-3.662-6.085-3.662-9.858c0-8.326,6.757-15.052,15.08-15.052      c8.321,0,15.044,6.727,15.044,15.052c0,8.328-6.722,15.087-15.044,15.087c-3.344,0-6.402-1.067-8.891-2.918L18.539,44.432z       M16.013,39.306l-2.845,11.388l10.172-4.626c2.597,1.351,5.547,2.135,8.678,2.135c10.385,0,18.814-8.433,18.814-18.859      c0-10.389-8.429-18.822-18.814-18.822c-10.421,0-18.85,8.433-18.85,18.822C13.168,33.008,14.235,36.425,16.013,39.306      L16.013,39.306z" fill="#FFFFFF"/></g></g></g></g></svg>