<?xml version="1.0" encoding="iso-8859-1"?>
<!-- Uploaded to: SVG Repo, www.svgrepo.com, Generator: SVG Repo Mixer Tools -->
<!DOCTYPE svg PUBLIC "-//W3C//DTD SVG 1.1//EN" "http://www.w3.org/Graphics/SVG/1.1/DTD/svg11.dtd">
<svg fill="#000000" version="1.1" id="Capa_1" xmlns="http://www.w3.org/2000/svg" xmlns:xlink="http://www.w3.org/1999/xlink" 
	 width="800px" height="800px" viewBox="0 0 568.485 568.485"
	 xml:space="preserve">
<g>
	<path d="M513.704,398.928c-8-15.899-32.399-31.2-51.399-28.8c0-1.2,0-3.1,0-4.3c0-10.4-11-12.9-17.101-8.601
		c-0.6-0.6-1.2-1.199-1.8-1.8c-58.1-31.2-126.7-38.6-191.6-39.8c-48.3-1.2-145-3.7-181.8,36.1c-3.7-1.8-7.3-4.3-11-6.1
		c-6.1-3.7-13.5,4.9-9.8,9.8c-0.6,0.601-0.6,1.8-0.6,3.101c-6.1,117.5,86.3,200.1,198.3,209.3c71,5.5,132.8-23.9,172-74.101l0,0
		c7.3,18.4,31.8,17.101,47.7,10.4c20.2-8.6,36.7-25.7,45.899-45.3C521.704,439.928,523.504,417.928,513.704,398.928z
		 M142.304,348.128c31.2-6.7,63.6-8.6,95.5-9.2c56.3-1.2,118.1,3.7,171.4,25.7c-91.8,37.3-220.9,37.9-314.6-1.8
		C111.004,358.528,126.304,351.828,142.304,348.128z M254.904,543.428c-104-0.6-178.7-78.899-191.6-178.1
		c101,67.899,269.9,63,375.2,12.2C425.004,476.028,359.504,544.628,254.904,543.428z M490.504,450.328
		c-6.699,13.5-17.1,25.1-30,32.399c-13.5,8-25.1,1.801-38.6,5.5c20.2-27.5,33.7-60.6,37.9-97.3c11.6,5.5,25.1,6.101,33,19
		C500.904,422.828,496.604,438.728,490.504,450.328z"/>
	<path d="M172.204,274.127c-23.3-10.4-39.2-20.2-39.2-47.7c0-17.1,4.9-33.7,6.7-50.2c3.1-30.6-19-58.8-51.4-53.2
		c-8.6,1.2-8.6,13.5-2.4,17.7c15.9,9.8,30.6,9.2,30.6,31.8c0,16.5-4.9,33.7-6.1,50.2c-2.4,36.1,22,60,56.3,65.5
		C174.104,289.428,180.204,277.828,172.204,274.127z"/>
	<path d="M290.404,197.627c10.4-13.5,17.7-26.9,17.7-44.7c-0.601-55.1-90.6-78.9-39.2-132.8c10.4-11-6.1-27.5-17.1-16.5
		c-17.7,16.5-37.3,39.8-26.3,65.5c14.1,31.8,65.5,55.7,56.9,95.5c-5.5,26.3-43.5,44.1-41.6,72.8c1.2,25.7,24.5,33,47.7,33
		c3.7,0,4.9-4.9,1.801-6.7C254.204,241.027,268.904,225.728,290.404,197.627z"/>
	<path d="M457.404,53.828c-23.9,22-36.1,45.3-23.9,77.1c5.5,14.1,23.301,40.4,5.5,53.9c-11,8.6-28.8,10.4-41.6,13.5
		c-14.1,3.7-42.8,8.6-47.7,26.3c-5.5,22.6,17.101,38.6,34.9,47.1c6.1,3.1,12.2-4.3,7.3-9.8c-4.3-4.9-30-26.9-18.4-33.7
		c8.601-5.5,20.2-6.7,30-9.2c17.101-4.3,36.7-6.7,51.4-17.7c12.9-9.2,17.1-30.6,14.1-45.3c-8.6-36.7-28.8-52.6,4.9-86.9
		C483.104,59.328,467.805,44.027,457.404,53.828z"/>
</g>
</svg>