<?xml version="1.0" encoding="utf-8"?>
<!-- Uploaded to: SVG Repo, www.svgrepo.com, Generator: SVG Repo Mixer Tools -->
<svg width="800px" height="800px" viewBox="0 0 64 64" xmlns="http://www.w3.org/2000/svg">
<title>spain-map</title>
<g id="spain-map">
<line x1="55" y1="49" x2="55" y2="51" style="fill:none;stroke:#000000;stroke-linecap:round;stroke-linejoin:round;stroke-width:2px"/>
<line x1="55" y1="55" x2="55" y2="57" style="fill:none;stroke:#000000;stroke-linecap:round;stroke-linejoin:round;stroke-width:2px"/>
<line x1="51" y1="53" x2="53" y2="53" style="fill:none;stroke:#000000;stroke-linecap:round;stroke-linejoin:round;stroke-width:2px"/>
<line x1="57" y1="53" x2="59" y2="53" style="fill:none;stroke:#000000;stroke-linecap:round;stroke-linejoin:round;stroke-width:2px"/>
<path d="M61.082,37.667A1.069,1.069,0,1,1,60.013,36.6,1.07,1.07,0,0,1,61.082,37.667Z"/>
<path d="M7.082,3.667A1.069,1.069,0,1,1,6.013,2.6,1.07,1.07,0,0,1,7.082,3.667Z"/>
<circle cx="21.5" cy="5.5" r="2.5" style="fill:none;stroke:#000000;stroke-linecap:round;stroke-linejoin:round;stroke-width:2px"/>
<polygon points="55.001 22.285 48.715 19.928 41.643 20.713 35 18 26 18 20.428 15.999 14.142 16.784 9.427 15.213 5.498 19.928 8.641 25.428 11.785 26.214 16.499 26.214 17.899 28 14.928 31.714 14.928 37.214 11.785 39.572 13.213 46 13.356 46.643 10.999 52.144 16.499 54.501 15.713 56.858 21.214 60.787 26.714 56.858 35.357 56.858 41.643 49.001 44.644 46 46.358 44.286 44.001 41.143 47.929 32.5 56.366 28 59.716 26.214 60.501 21.499 55.001 22.285" style="fill:none;stroke:#000000;stroke-linecap:round;stroke-linejoin:round;stroke-width:2px"/>
<line x1="45" y1="46" x2="13" y2="46" style="fill:none;stroke:#000000;stroke-linejoin:round;stroke-width:2px"/>
<line x1="18" y1="28" x2="56" y2="28" style="fill:none;stroke:#000000;stroke-linejoin:round;stroke-width:2px"/>
</g>
</svg>