<svg id="svg" xmlns="http://www.w3.org/2000/svg" xmlns:xlink="http://www.w3.org/1999/xlink" width="400" height="167.38281250000003" viewBox="0, 0, 400,167.38281250000003"><g id="svgg"><path id="path0" d="M34.093 18.708 C 34.058 18.823,33.945 22.779,33.843 27.500 C 33.741 32.221,33.546 41.146,33.411 47.333 C 33.275 53.521,33.054 63.646,32.919 69.833 C 32.784 76.021,32.596 84.533,32.501 88.750 C 32.406 92.967,32.219 101.292,32.086 107.250 C 31.678 125.423,31.429 141.318,31.550 141.439 C 31.772 141.661,32.817 141.503,39.424 140.249 C 46.001 139.002,92.666 130.219,122.750 124.566 C 131.275 122.964,145.600 120.273,154.583 118.585 C 163.567 116.897,179.542 113.894,190.083 111.912 C 200.625 109.930,209.813 108.207,210.500 108.082 C 211.188 107.957,220.338 106.243,230.833 104.272 C 257.065 99.347,258.166 99.146,258.494 99.201 C 258.653 99.228,258.963 99.161,259.183 99.052 C 259.403 98.944,265.246 97.794,272.167 96.498 C 287.577 93.611,322.459 87.035,322.917 86.930 C 323.213 86.862,323.342 87.132,324.081 89.382 C 329.643 106.293,344.889 116.068,358.798 111.640 C 380.519 104.725,385.408 70.394,367.259 52.241 C 353.780 38.760,334.507 41.836,325.948 58.833 C 324.297 62.113,322.500 67.755,322.500 69.660 C 322.500 69.933,322.421 69.988,322.125 69.922 C 321.919 69.875,319.237 69.389,316.167 68.841 C 301.140 66.159,287.333 63.691,280.250 62.420 C 275.942 61.647,268.592 60.333,263.917 59.500 C 259.242 58.667,253.992 57.728,252.250 57.414 C 250.508 57.100,245.071 56.126,240.167 55.249 C 235.262 54.372,228.775 53.209,225.750 52.665 C 222.725 52.121,213.350 50.440,204.917 48.929 C 176.515 43.841,167.179 42.168,142.000 37.653 C 111.794 32.237,105.740 31.153,94.167 29.083 C 76.564 25.936,71.140 24.964,63.917 23.664 C 33.222 18.138,34.216 18.303,34.093 18.708 M36.667 19.742 C 38.008 19.970,40.986 20.502,47.417 21.664 C 48.975 21.946,51.075 22.322,52.083 22.499 C 53.092 22.677,55.417 23.092,57.250 23.422 C 59.083 23.752,62.008 24.276,63.750 24.586 C 65.492 24.896,69.054 25.532,71.667 26.000 C 74.279 26.469,77.842 27.106,79.583 27.417 C 81.325 27.727,84.587 28.315,86.833 28.722 C 89.079 29.129,91.451 29.556,92.104 29.671 L 93.290 29.879 93.800 31.815 C 94.080 32.879,95.108 36.861,96.084 40.663 C 97.060 44.466,98.117 48.553,98.433 49.747 C 98.750 50.940,99.095 52.273,99.200 52.708 C 99.421 53.626,99.824 53.766,100.158 53.042 C 100.274 52.790,101.704 49.433,103.334 45.583 C 104.965 41.733,106.831 37.346,107.481 35.833 C 108.132 34.321,108.664 32.984,108.665 32.862 C 108.666 32.709,108.810 32.668,109.125 32.731 C 109.377 32.781,111.121 33.092,113.000 33.423 C 114.879 33.755,117.804 34.278,119.500 34.585 C 121.196 34.893,124.121 35.416,126.000 35.748 C 127.879 36.080,129.979 36.457,130.667 36.586 C 131.354 36.715,134.279 37.239,137.167 37.750 C 140.054 38.261,142.979 38.783,143.667 38.911 C 144.354 39.039,145.779 39.297,146.833 39.484 C 149.236 39.912,156.222 41.161,160.500 41.927 C 162.287 42.247,164.612 42.661,165.667 42.847 C 168.690 43.381,168.409 43.266,168.054 43.825 C 167.390 44.870,164.717 47.830,159.843 52.917 C 144.131 69.316,139.141 74.550,138.167 75.654 C 137.571 76.330,136.571 77.436,135.946 78.112 C 135.320 78.789,134.833 79.413,134.863 79.501 C 134.928 79.693,136.591 81.630,160.260 109.084 C 164.284 113.751,165.622 115.433,165.451 115.605 C 165.406 115.650,165.155 115.717,164.893 115.754 C 164.427 115.821,160.902 116.477,155.583 117.486 C 154.117 117.765,149.692 118.596,145.750 119.333 C 141.808 120.070,137.233 120.930,135.583 121.243 C 133.933 121.556,131.721 121.972,130.667 122.167 C 129.612 122.362,127.775 122.709,126.583 122.939 C 125.392 123.168,123.854 123.459,123.167 123.584 C 122.479 123.709,118.887 124.382,115.183 125.080 C 107.285 126.570,107.888 126.563,107.391 125.167 C 100.292 105.207,99.820 104.075,99.323 105.833 C 99.258 106.063,97.951 110.300,96.418 115.250 C 92.597 127.593,92.333 128.474,92.333 128.920 C 92.333 129.414,92.975 129.256,84.583 130.829 C 80.642 131.568,76.029 132.435,74.333 132.756 C 69.964 133.584,68.998 133.766,66.833 134.161 C 65.779 134.354,64.392 134.618,63.750 134.747 C 63.108 134.877,61.758 135.134,60.750 135.320 C 59.742 135.505,56.892 136.036,54.417 136.500 C 51.942 136.964,49.092 137.496,48.083 137.683 C 47.075 137.870,45.688 138.129,45.000 138.258 C 44.313 138.388,42.362 138.756,40.667 139.075 C 38.971 139.395,36.544 139.847,35.275 140.080 C 34.005 140.312,32.774 140.550,32.539 140.609 L 32.112 140.717 32.221 134.650 C 32.281 131.313,32.404 125.658,32.495 122.083 C 32.586 118.508,32.775 110.558,32.914 104.417 C 33.152 93.985,33.235 90.236,33.669 70.500 C 33.760 66.329,33.947 58.004,34.083 52.000 C 34.218 45.996,34.405 37.371,34.498 32.833 C 34.720 21.878,34.821 19.500,35.059 19.501 C 35.164 19.501,35.887 19.610,36.667 19.742 M171.531 43.905 C 172.751 44.128,175.287 44.582,177.167 44.914 C 179.046 45.246,181.146 45.624,181.833 45.753 C 182.521 45.882,185.446 46.405,188.333 46.915 C 191.221 47.424,193.921 47.913,194.333 48.000 C 194.746 48.087,196.846 48.464,199.000 48.838 C 201.154 49.212,203.929 49.706,205.167 49.935 C 206.404 50.164,209.704 50.758,212.500 51.254 C 217.804 52.197,220.511 52.681,226.917 53.833 C 229.025 54.212,231.612 54.677,232.667 54.866 C 234.714 55.232,234.994 55.355,235.556 56.135 C 235.754 56.409,237.232 58.160,238.839 60.025 C 240.446 61.891,243.206 65.123,244.973 67.208 C 248.364 71.211,248.374 71.219,249.112 70.613 C 249.371 70.400,251.458 68.810,253.750 67.081 C 260.912 61.677,262.044 60.783,262.126 60.471 C 262.170 60.303,262.227 60.167,262.252 60.167 C 262.278 60.167,263.563 60.395,265.108 60.675 C 267.508 61.110,273.854 62.254,280.750 63.497 C 286.186 64.476,295.217 66.095,299.833 66.916 C 302.721 67.430,306.058 68.033,307.250 68.255 C 308.442 68.477,311.779 69.078,314.667 69.591 C 317.554 70.103,321.117 70.737,322.583 71.000 C 324.050 71.263,327.575 71.893,330.417 72.401 C 333.258 72.909,337.083 73.594,338.917 73.924 C 340.750 74.253,342.850 74.625,343.583 74.751 C 345.355 75.056,350.861 76.042,353.667 76.558 C 354.904 76.785,356.254 77.021,356.667 77.081 C 357.471 77.198,360.357 77.724,361.792 78.013 C 363.366 78.332,362.987 78.514,359.417 79.157 C 358.317 79.355,356.292 79.733,354.917 79.996 C 353.542 80.260,351.554 80.636,350.500 80.831 C 349.446 81.026,347.458 81.400,346.083 81.662 C 344.708 81.925,342.533 82.336,341.250 82.576 C 339.967 82.816,338.579 83.082,338.167 83.167 C 337.754 83.251,336.367 83.513,335.083 83.748 C 333.800 83.984,332.412 84.246,332.000 84.332 C 331.587 84.417,330.387 84.643,329.333 84.834 C 328.279 85.025,326.067 85.436,324.417 85.747 C 322.767 86.058,320.554 86.470,319.500 86.662 C 318.446 86.855,317.246 87.082,316.833 87.167 C 316.421 87.251,315.033 87.513,313.750 87.748 C 312.467 87.984,311.079 88.246,310.667 88.332 C 310.254 88.417,309.054 88.644,308.000 88.835 C 306.946 89.027,304.696 89.445,303.000 89.765 C 298.799 90.558,297.715 90.761,295.583 91.156 C 294.575 91.343,288.950 92.398,283.083 93.501 C 277.217 94.603,271.629 95.653,270.667 95.833 C 269.704 96.014,266.717 96.575,264.030 97.081 C 258.076 98.201,258.734 98.221,257.562 96.877 C 257.024 96.259,255.533 94.584,254.250 93.154 C 252.967 91.725,251.171 89.718,250.259 88.694 C 248.395 86.602,248.277 86.553,247.496 87.542 C 246.654 88.606,241.408 95.038,238.786 98.220 C 237.516 99.762,236.248 101.347,235.969 101.743 L 235.462 102.463 232.606 103.000 C 231.035 103.295,228.813 103.714,227.667 103.931 C 226.521 104.147,217.783 105.790,208.250 107.582 C 198.717 109.374,190.167 110.983,189.250 111.158 C 188.333 111.333,186.721 111.636,185.667 111.832 C 184.612 112.028,182.400 112.444,180.750 112.757 C 164.214 115.891,165.924 115.736,166.075 114.083 C 166.125 113.533,166.206 111.883,166.255 110.417 C 166.303 108.950,166.413 106.212,166.499 104.333 C 166.584 102.454,166.696 99.792,166.747 98.417 C 166.798 97.042,166.950 93.217,167.084 89.917 C 167.219 86.617,167.479 80.167,167.663 75.583 C 167.847 71.000,168.074 65.637,168.167 63.667 C 168.259 61.696,168.446 57.196,168.582 53.667 C 168.895 45.515,169.013 43.500,169.178 43.500 C 169.251 43.500,170.310 43.682,171.531 43.905 M165.000 145.336 C 162.993 145.901,162.800 146.000,163.917 145.891 C 165.773 145.709,166.244 145.590,166.302 145.287 C 166.368 144.947,166.381 144.946,165.000 145.336 M164.417 152.833 C 164.285 153.047,165.003 153.047,165.333 152.833 C 165.524 152.710,165.456 152.671,165.052 152.669 C 164.759 152.668,164.473 152.742,164.417 152.833 M126.615 153.304 C 126.118 153.361,126.089 153.612,126.547 153.901 C 126.743 154.025,126.879 154.021,127.011 153.889 C 127.335 153.565,127.119 153.246,126.615 153.304 " stroke="none" fill="#0c0c0c" fill-rule="evenodd"></path><path id="path1" d="M34.773 25.455 C 34.712 28.734,34.588 34.417,34.498 38.083 C 34.336 44.714,34.219 49.939,33.752 71.583 C 33.618 77.817,33.431 86.217,33.337 90.250 C 33.244 94.283,33.091 100.958,32.997 105.083 C 32.904 109.208,32.679 118.840,32.498 126.488 C 32.318 134.135,32.198 140.420,32.232 140.455 C 32.267 140.489,33.297 140.328,34.522 140.097 C 35.748 139.867,44.587 138.208,54.167 136.412 C 63.746 134.615,76.148 132.288,81.726 131.239 C 87.305 130.191,91.936 129.333,92.018 129.333 C 92.100 129.333,92.168 129.202,92.169 129.042 C 92.172 128.614,98.887 106.589,99.333 105.542 C 99.872 104.276,100.475 105.565,104.185 115.917 C 107.787 125.968,107.883 126.235,107.919 126.292 C 107.934 126.316,108.689 126.187,109.598 126.007 C 111.031 125.722,132.980 121.592,157.083 117.072 C 161.208 116.299,164.749 115.628,164.952 115.581 L 165.320 115.497 165.001 114.955 C 164.825 114.657,162.158 111.489,159.074 107.915 C 155.990 104.341,149.396 96.692,144.420 90.917 C 139.444 85.142,135.214 80.236,135.020 80.016 C 134.531 79.462,134.531 79.463,135.792 78.102 C 136.410 77.435,137.434 76.295,138.066 75.569 C 138.698 74.844,140.798 72.600,142.732 70.583 C 164.641 47.744,165.952 46.357,167.454 44.437 C 168.215 43.464,168.178 43.415,166.458 43.123 C 164.918 42.863,122.336 35.231,113.667 33.663 C 108.528 32.733,108.667 32.750,108.667 33.059 C 108.667 33.184,107.459 36.128,105.983 39.601 C 104.507 43.075,102.567 47.642,101.673 49.750 C 100.032 53.617,99.556 54.338,99.272 53.385 C 99.223 53.219,98.584 50.758,97.851 47.917 C 97.119 45.075,95.829 40.087,94.986 36.833 C 94.142 33.579,93.417 30.715,93.375 30.468 C 93.320 30.146,93.174 29.993,92.857 29.927 C 92.431 29.839,70.641 25.931,55.167 23.168 C 50.996 22.423,45.558 21.447,43.083 20.999 C 40.608 20.551,37.871 20.064,37.000 19.918 C 36.129 19.772,35.297 19.616,35.151 19.573 C 34.913 19.502,34.874 20.111,34.773 25.455 M169.100 44.025 C 169.056 44.240,168.975 45.879,168.921 47.667 C 168.867 49.454,168.752 52.379,168.667 54.167 C 168.581 55.954,168.470 58.767,168.421 60.417 C 168.371 62.067,168.292 63.904,168.244 64.500 C 168.197 65.096,168.008 69.371,167.825 74.000 C 167.643 78.629,167.382 85.154,167.245 88.500 C 167.109 91.846,166.887 97.358,166.751 100.750 C 166.616 104.142,166.419 108.776,166.314 111.048 C 166.210 113.320,166.158 115.214,166.200 115.256 C 166.243 115.298,169.046 114.812,172.430 114.176 C 178.160 113.100,189.784 110.910,208.833 107.318 C 213.188 106.498,220.950 105.037,226.083 104.073 C 234.454 102.501,235.442 102.283,235.667 101.954 C 235.973 101.506,236.358 101.029,241.487 94.750 C 243.733 92.000,246.134 89.056,246.821 88.208 C 247.509 87.360,248.189 86.667,248.333 86.667 C 248.477 86.667,250.618 88.933,253.089 91.702 C 255.561 94.471,257.818 96.999,258.105 97.319 L 258.626 97.900 260.688 97.527 C 261.822 97.322,269.500 95.885,277.750 94.333 C 286.000 92.782,296.612 90.794,301.333 89.915 C 309.414 88.410,328.316 84.856,341.167 82.424 C 344.329 81.826,350.421 80.681,354.703 79.880 C 358.986 79.079,362.436 78.374,362.370 78.313 C 362.246 78.200,360.473 77.866,357.167 77.333 C 356.113 77.163,353.150 76.642,350.583 76.174 C 348.017 75.707,342.354 74.693,338.000 73.921 C 330.470 72.585,325.108 71.626,307.250 68.417 C 302.942 67.643,294.579 66.141,288.667 65.079 C 282.754 64.018,274.428 62.516,270.163 61.741 C 261.208 60.115,262.226 60.254,262.125 60.643 C 262.080 60.813,259.728 62.712,256.897 64.863 C 249.529 70.463,248.576 71.167,248.370 71.167 C 248.268 71.167,246.927 69.685,245.390 67.875 C 243.853 66.065,241.055 62.788,239.172 60.594 C 237.290 58.400,235.630 56.427,235.482 56.210 C 234.962 55.442,234.464 55.331,220.063 52.748 C 212.099 51.320,197.633 48.728,187.917 46.988 C 178.200 45.248,170.010 43.781,169.716 43.728 C 169.253 43.645,169.171 43.684,169.100 44.025 " stroke="none" fill="#fbfbfb" fill-rule="evenodd"></path><path id="path2" d="M34.727 25.167 C 34.727 26.037,34.755 26.394,34.789 25.958 C 34.824 25.523,34.824 24.810,34.789 24.375 C 34.755 23.940,34.727 24.296,34.727 25.167 M34.555 33.250 C 34.555 33.892,34.586 34.134,34.622 33.788 C 34.658 33.442,34.657 32.917,34.620 32.621 C 34.583 32.325,34.554 32.608,34.555 33.250 M34.381 40.250 C 34.382 40.708,34.415 40.876,34.453 40.623 C 34.491 40.369,34.490 39.994,34.451 39.789 C 34.411 39.584,34.380 39.792,34.381 40.250 M168.881 47.417 C 168.882 47.875,168.915 48.043,168.953 47.789 C 168.991 47.536,168.990 47.161,168.951 46.956 C 168.911 46.751,168.880 46.958,168.881 47.417 M34.221 48.083 C 34.222 48.725,34.252 48.967,34.288 48.621 C 34.324 48.275,34.324 47.750,34.287 47.455 C 34.250 47.159,34.221 47.442,34.221 48.083 M162.494 49.958 L 161.583 50.917 162.542 50.006 C 163.069 49.505,163.500 49.073,163.500 49.047 C 163.500 48.924,163.341 49.068,162.494 49.958 M168.712 51.667 C 168.712 52.079,168.745 52.248,168.784 52.042 C 168.824 51.835,168.824 51.498,168.784 51.292 C 168.745 51.085,168.712 51.254,168.712 51.667 M158.578 54.042 L 157.583 55.083 158.625 54.089 C 159.198 53.541,159.667 53.073,159.667 53.047 C 159.667 52.924,159.502 53.074,158.578 54.042 M34.058 55.500 C 34.058 56.279,34.087 56.598,34.122 56.208 C 34.157 55.819,34.157 55.181,34.122 54.792 C 34.087 54.402,34.058 54.721,34.058 55.500 M154.662 58.125 L 153.583 59.250 154.708 58.171 C 155.327 57.578,155.833 57.072,155.833 57.046 C 155.833 56.924,155.664 57.080,154.662 58.125 M168.375 59.583 C 168.377 59.950,168.411 60.080,168.451 59.873 C 168.491 59.666,168.490 59.366,168.448 59.206 C 168.406 59.047,168.374 59.217,168.375 59.583 M150.829 62.125 L 149.750 63.250 150.875 62.171 C 151.494 61.578,152.000 61.072,152.000 61.046 C 152.000 60.924,151.830 61.080,150.829 62.125 M33.883 62.833 C 33.883 63.337,33.915 63.544,33.953 63.292 C 33.991 63.040,33.991 62.627,33.953 62.375 C 33.915 62.123,33.883 62.329,33.883 62.833 M168.214 63.583 C 168.216 64.042,168.248 64.209,168.286 63.956 C 168.325 63.703,168.324 63.328,168.284 63.123 C 168.244 62.918,168.213 63.125,168.214 63.583 M147.078 66.042 L 146.083 67.083 147.125 66.089 C 147.698 65.541,148.167 65.073,148.167 65.047 C 148.167 64.924,148.002 65.074,147.078 66.042 M143.245 70.042 L 142.250 71.083 143.292 70.089 C 143.865 69.541,144.333 69.073,144.333 69.047 C 144.333 68.924,144.169 69.074,143.245 70.042 M33.718 70.583 C 33.719 71.133,33.750 71.338,33.787 71.039 C 33.825 70.739,33.824 70.289,33.786 70.039 C 33.748 69.788,33.717 70.033,33.718 70.583 M139.744 73.708 L 138.917 74.583 139.792 73.756 C 140.605 72.988,140.743 72.833,140.619 72.833 C 140.592 72.833,140.199 73.227,139.744 73.708 M167.717 75.500 C 167.717 76.004,167.748 76.210,167.786 75.958 C 167.824 75.706,167.824 75.294,167.786 75.042 C 167.748 74.790,167.717 74.996,167.717 75.500 M33.560 77.833 C 33.560 78.704,33.588 79.060,33.623 78.625 C 33.657 78.190,33.657 77.477,33.623 77.042 C 33.588 76.606,33.560 76.962,33.560 77.833 M167.542 79.750 C 167.544 80.117,167.578 80.247,167.618 80.040 C 167.658 79.832,167.656 79.532,167.615 79.373 C 167.573 79.214,167.540 79.383,167.542 79.750 M33.387 85.667 C 33.387 86.263,33.417 86.506,33.454 86.208 C 33.491 85.910,33.491 85.423,33.454 85.125 C 33.417 84.827,33.387 85.071,33.387 85.667 M167.212 87.833 C 167.212 88.246,167.245 88.415,167.284 88.208 C 167.324 88.002,167.324 87.665,167.284 87.458 C 167.245 87.252,167.212 87.421,167.212 87.833 M167.048 91.917 C 167.049 92.375,167.081 92.543,167.120 92.289 C 167.158 92.036,167.157 91.661,167.117 91.456 C 167.078 91.251,167.046 91.458,167.048 91.917 M33.217 92.833 C 33.217 93.337,33.248 93.544,33.286 93.292 C 33.324 93.040,33.324 92.627,33.286 92.375 C 33.248 92.123,33.217 92.329,33.217 92.833 M33.056 100.500 C 33.056 101.188,33.085 101.469,33.121 101.125 C 33.157 100.781,33.157 100.219,33.121 99.875 C 33.085 99.531,33.056 99.813,33.056 100.500 M166.709 100.250 C 166.711 100.617,166.745 100.747,166.785 100.540 C 166.824 100.332,166.823 100.032,166.781 99.873 C 166.739 99.714,166.707 99.883,166.709 100.250 M166.550 104.333 C 166.550 104.837,166.581 105.044,166.619 104.792 C 166.658 104.540,166.658 104.127,166.619 103.875 C 166.581 103.623,166.550 103.829,166.550 104.333 M32.890 107.917 C 32.891 108.650,32.920 108.929,32.956 108.537 C 32.991 108.145,32.990 107.545,32.954 107.204 C 32.919 106.863,32.890 107.183,32.890 107.917 M32.714 114.917 C 32.716 115.375,32.748 115.543,32.786 115.289 C 32.825 115.036,32.824 114.661,32.784 114.456 C 32.744 114.251,32.713 114.458,32.714 114.917 M32.550 122.167 C 32.550 122.671,32.581 122.877,32.619 122.625 C 32.658 122.373,32.658 121.960,32.619 121.708 C 32.581 121.456,32.550 121.662,32.550 122.167 M32.390 128.917 C 32.391 129.650,32.420 129.929,32.456 129.537 C 32.491 129.145,32.490 128.545,32.454 128.204 C 32.419 127.863,32.390 128.183,32.390 128.917 M32.226 135.917 C 32.225 136.742,32.254 137.100,32.288 136.713 C 32.323 136.327,32.324 135.652,32.289 135.213 C 32.255 134.775,32.226 135.092,32.226 135.917 " stroke="none" fill="#a8a8aa" fill-rule="evenodd"></path><path id="path3" d="M34.712 22.667 C 34.712 23.079,34.745 23.248,34.784 23.042 C 34.824 22.835,34.824 22.498,34.784 22.292 C 34.745 22.085,34.712 22.254,34.712 22.667 M34.559 30.583 C 34.559 31.408,34.587 31.767,34.622 31.380 C 34.657 30.993,34.657 30.318,34.623 29.880 C 34.588 29.442,34.560 29.758,34.559 30.583 M34.390 37.750 C 34.391 38.483,34.420 38.763,34.456 38.371 C 34.491 37.979,34.490 37.379,34.454 37.037 C 34.419 36.696,34.390 37.017,34.390 37.750 M164.491 47.958 L 163.917 48.583 164.542 48.009 C 165.123 47.474,165.243 47.333,165.116 47.333 C 165.088 47.333,164.807 47.615,164.491 47.958 M168.714 50.083 C 168.716 50.542,168.748 50.709,168.786 50.456 C 168.825 50.203,168.824 49.828,168.784 49.623 C 168.744 49.418,168.713 49.625,168.714 50.083 M161.161 51.458 L 160.250 52.417 161.208 51.506 C 162.099 50.659,162.243 50.500,162.119 50.500 C 162.093 50.500,161.662 50.931,161.161 51.458 M34.055 53.083 C 34.055 53.725,34.086 53.967,34.122 53.621 C 34.158 53.275,34.157 52.750,34.120 52.455 C 34.083 52.159,34.054 52.442,34.055 53.083 M168.545 54.167 C 168.545 54.579,168.578 54.748,168.618 54.542 C 168.657 54.335,168.657 53.998,168.618 53.792 C 168.578 53.585,168.545 53.754,168.545 54.167 M157.245 55.542 L 156.250 56.583 157.292 55.589 C 157.865 55.041,158.333 54.573,158.333 54.547 C 158.333 54.424,158.169 54.574,157.245 55.542 M33.892 60.000 C 33.892 60.779,33.920 61.098,33.955 60.708 C 33.990 60.319,33.990 59.681,33.955 59.292 C 33.920 58.902,33.892 59.221,33.892 60.000 M153.328 59.625 L 152.417 60.583 153.375 59.672 C 153.902 59.171,154.333 58.740,154.333 58.714 C 154.333 58.590,154.174 58.735,153.328 59.625 M168.205 62.333 C 168.205 62.654,168.240 62.785,168.282 62.625 C 168.323 62.465,168.323 62.202,168.282 62.042 C 168.240 61.881,168.205 62.012,168.205 62.333 M149.578 63.542 L 148.583 64.583 149.625 63.589 C 150.198 63.041,150.667 62.573,150.667 62.547 C 150.667 62.424,150.502 62.574,149.578 63.542 M168.048 65.917 C 168.049 66.375,168.081 66.543,168.120 66.289 C 168.158 66.036,168.157 65.661,168.117 65.456 C 168.078 65.251,168.046 65.458,168.048 65.917 M145.745 67.542 L 144.750 68.583 145.792 67.589 C 146.365 67.041,146.833 66.573,146.833 66.547 C 146.833 66.424,146.669 66.574,145.745 67.542 M33.712 68.000 C 33.712 68.412,33.745 68.581,33.784 68.375 C 33.824 68.169,33.824 67.831,33.784 67.625 C 33.745 67.419,33.712 67.587,33.712 68.000 M142.245 71.208 L 141.250 72.250 142.292 71.255 C 142.865 70.708,143.333 70.239,143.333 70.214 C 143.333 70.090,143.169 70.241,142.245 71.208 M138.667 74.917 C 138.262 75.329,137.968 75.667,138.014 75.667 C 138.060 75.667,138.428 75.329,138.833 74.917 C 139.238 74.504,139.532 74.167,139.486 74.167 C 139.440 74.167,139.072 74.504,138.667 74.917 M33.545 75.500 C 33.545 75.912,33.578 76.081,33.618 75.875 C 33.657 75.669,33.657 75.331,33.618 75.125 C 33.578 74.919,33.545 75.087,33.545 75.500 M136.406 77.542 L 135.917 78.083 136.458 77.594 C 136.756 77.325,137.000 77.081,137.000 77.052 C 137.000 76.923,136.862 77.037,136.406 77.542 M167.548 78.250 C 167.549 78.708,167.581 78.876,167.620 78.623 C 167.658 78.369,167.657 77.994,167.617 77.789 C 167.578 77.584,167.546 77.792,167.548 78.250 M33.392 82.917 C 33.392 83.742,33.420 84.100,33.455 83.713 C 33.490 83.327,33.490 82.652,33.456 82.213 C 33.422 81.775,33.393 82.092,33.392 82.917 M167.379 82.167 C 167.379 82.579,167.411 82.748,167.451 82.542 C 167.491 82.335,167.491 81.998,167.451 81.792 C 167.411 81.585,167.379 81.754,167.379 82.167 M33.221 90.250 C 33.222 90.892,33.252 91.134,33.288 90.788 C 33.324 90.442,33.324 89.917,33.287 89.621 C 33.250 89.325,33.221 89.608,33.221 90.250 M167.045 90.500 C 167.045 90.912,167.078 91.081,167.118 90.875 C 167.157 90.669,167.157 90.331,167.118 90.125 C 167.078 89.919,167.045 90.087,167.045 90.500 M166.883 94.500 C 166.883 95.004,166.915 95.210,166.953 94.958 C 166.991 94.706,166.991 94.294,166.953 94.042 C 166.915 93.790,166.883 93.996,166.883 94.500 M166.539 103.000 C 166.539 103.321,166.573 103.452,166.615 103.292 C 166.657 103.131,166.657 102.869,166.615 102.708 C 166.573 102.548,166.539 102.679,166.539 103.000 M32.889 105.500 C 32.889 106.188,32.919 106.469,32.955 106.125 C 32.991 105.781,32.991 105.219,32.955 104.875 C 32.919 104.531,32.889 104.813,32.889 105.500 M166.381 106.750 C 166.382 107.208,166.415 107.376,166.453 107.123 C 166.491 106.869,166.490 106.494,166.451 106.289 C 166.411 106.084,166.380 106.292,166.381 106.750 M32.725 112.333 C 32.725 113.112,32.754 113.431,32.789 113.042 C 32.824 112.652,32.824 112.015,32.789 111.625 C 32.754 111.235,32.725 111.554,32.725 112.333 M32.542 119.750 C 32.544 120.117,32.578 120.247,32.618 120.040 C 32.658 119.832,32.656 119.532,32.615 119.373 C 32.573 119.214,32.540 119.383,32.542 119.750 M32.375 126.583 C 32.377 126.950,32.411 127.080,32.451 126.873 C 32.491 126.666,32.490 126.366,32.448 126.206 C 32.406 126.047,32.374 126.217,32.375 126.583 M32.220 133.333 C 32.220 133.929,32.250 134.173,32.287 133.875 C 32.324 133.577,32.324 133.090,32.287 132.792 C 32.250 132.494,32.220 132.737,32.220 133.333 " stroke="none" fill="#848484" fill-rule="evenodd"></path><path id="path4" d="M34.209 46.417 C 34.211 46.783,34.245 46.914,34.285 46.706 C 34.324 46.499,34.323 46.199,34.281 46.040 C 34.239 45.880,34.207 46.050,34.209 46.417 M33.705 69.167 C 33.705 69.487,33.740 69.619,33.782 69.458 C 33.823 69.298,33.823 69.035,33.782 68.875 C 33.740 68.715,33.705 68.846,33.705 69.167 M33.042 98.750 C 33.044 99.117,33.078 99.247,33.118 99.040 C 33.158 98.832,33.156 98.532,33.115 98.373 C 33.073 98.214,33.040 98.383,33.042 98.750 M32.539 120.833 C 32.539 121.154,32.573 121.285,32.615 121.125 C 32.657 120.965,32.657 120.702,32.615 120.542 C 32.573 120.381,32.539 120.513,32.539 120.833 " stroke="none" fill="#8c8c8c" fill-rule="evenodd"></path></g></svg>